<?xml version="1.0" encoding="UTF-8" standalone="no"?><!-- Generator: Gravit.io --><svg xmlns="http://www.w3.org/2000/svg" xmlns:xlink="http://www.w3.org/1999/xlink" style="isolation:isolate" viewBox="21.364 58.731 2000 1618.402" width="2000pt" height="1618.402pt"><defs><clipPath id="_clipPath_LE08wDBQWy8kFJlQN3pUyTJgh6RODbiv"><rect x="21.364" y="58.731" width="2000" height="1618.402"/></clipPath></defs><g clip-path="url(#_clipPath_LE08wDBQWy8kFJlQN3pUyTJgh6RODbiv)"><path d=" M 1972.79 1677.133 C 1947.755 1677.115 1927.013 1657.704 1925.335 1632.725 C 1923.432 1606.736 1869.075 1029.137 878.089 1011.193 L 878.089 1343.949 C 878.078 1362.299 867.52 1379.009 850.951 1386.897 C 834.383 1394.785 814.755 1392.445 800.505 1380.885 L 38.94 762.114 C 27.82 753.075 21.364 739.508 21.364 725.178 C 21.364 710.848 27.82 697.28 38.94 688.242 L 800.505 69.471 C 814.734 57.827 834.405 55.441 851.006 63.344 C 867.606 71.247 878.156 88.021 878.089 106.407 L 878.089 440.257 C 1934.903 470.339 2014.486 1501.164 2020.007 1618.255 C 2023.469 1632.444 2020.224 1647.437 2011.206 1658.925 C 2002.188 1670.414 1988.395 1677.126 1973.79 1677.133 L 1972.79 1677.133 Z " fill="rgb(255,255,255)"/></g></svg>