<?xml version="1.0" encoding="UTF-8" standalone="no"?><!-- Generator: Gravit.io --><svg xmlns="http://www.w3.org/2000/svg" xmlns:xlink="http://www.w3.org/1999/xlink" style="isolation:isolate" viewBox="1128.225 3505.046 279.322 270.225" width="279.322pt" height="270.225pt"><defs><clipPath id="_clipPath_NqzL5KTWOCUkyqpgtzSWqVUWtwmmaJ66"><rect x="1128.225" y="3505.046" width="279.322" height="270.225"/></clipPath></defs><g clip-path="url(#_clipPath_NqzL5KTWOCUkyqpgtzSWqVUWtwmmaJ66)"><g><g><g><path d=" M 1206.558 3512.935 C 1142.464 3563.268 1146.136 3645.281 1223.519 3713.893 L 1240.716 3707.152 C 1168.852 3639.782 1158.241 3563.162 1206.558 3512.935 Z " fill-rule="evenodd" fill="rgb(0,0,0)"/></g><g><path d=" M 1145.057 3571.04 C 1121.63 3649.095 1171.851 3714.038 1274.625 3725.584 L 1284.805 3710.171 C 1187.258 3696.463 1134.469 3639.925 1145.057 3571.04 Z " fill-rule="evenodd" fill="rgb(0,0,0)"/></g><g><path d=" M 1128.225 3653.957 C 1154.011 3731.265 1232.463 3755.45 1323.141 3705.719 L 1322.591 3687.255 C 1234.942 3732.209 1159.228 3716.376 1128.225 3653.957 Z " fill-rule="evenodd" fill="rgb(0,0,0)"/></g><g><path d=" M 1162.202 3731.444 C 1227.796 3779.807 1305.864 3754.412 1351.373 3661.543 L 1340.293 3646.764 C 1294.51 3733.983 1223.489 3764.629 1162.202 3731.444 Z " fill-rule="evenodd" fill="rgb(0,0,0)"/></g><g><path d=" M 1234.595 3775.237 C 1316.071 3777.015 1365.282 3711.304 1349.022 3609.17 L 1331.454 3603.465 C 1344.237 3701.137 1303.811 3767.084 1234.595 3775.237 Z " fill-rule="evenodd" fill="rgb(0,0,0)"/></g><g><path d=" M 1319 3769.363 C 1386.641 3723.908 1389.044 3641.848 1316.946 3567.701 L 1299.297 3573.152 C 1365.983 3645.652 1370.899 3722.847 1319 3769.363 Z " fill-rule="evenodd" fill="rgb(0,0,0)"/></g><g><path d=" M 1384.63 3715.965 C 1413.764 3639.856 1368.483 3571.377 1266.845 3552.263 L 1255.553 3566.881 C 1351.819 3587.765 1400.282 3648.052 1384.63 3715.965 Z " fill-rule="evenodd" fill="rgb(0,0,0)"/></g><g><path d=" M 1407.547 3634.52 C 1387.548 3555.516 1311.1 3525.596 1216.992 3568.486 L 1216.175 3586.939 C 1306.909 3548.59 1381.244 3569.979 1407.547 3634.52 Z " fill-rule="evenodd" fill="rgb(0,0,0)"/></g><g><path d=" M 1379.393 3554.733 C 1317.556 3501.651 1237.823 3521.203 1185.571 3610.452 L 1195.528 3626.011 C 1247.635 3542.416 1320.728 3517.106 1379.393 3554.733 Z " fill-rule="evenodd" fill="rgb(0,0,0)"/></g><g><path d=" M 1310.436 3505.706 C 1229.315 3497.908 1175.38 3559.8 1184.042 3662.856 L 1201.141 3669.845 C 1195.616 3571.495 1240.807 3508.718 1310.436 3505.706 Z " fill-rule="evenodd" fill="rgb(0,0,0)"/></g><radialGradient id="_rgradient_0" fx="0.5" fy="0.5" cx="0.5" cy="0.5" r="0.5" gradientTransform="matrix(150.112,-1.667,1.79,150.114,1190.888,3564.371)" gradientUnits="userSpaceOnUse"><stop offset="0%" stop-opacity="1" style="stop-color:rgb(23,23,23)"/><stop offset="73.33333333333333%" stop-opacity="1" style="stop-color:rgb(0,0,0)"/></radialGradient><path d=" M 1191.783 3639.428 C 1191.289 3598.003 1224.519 3563.998 1265.944 3563.538 C 1307.368 3563.078 1341.401 3596.336 1341.895 3637.761 C 1342.389 3679.186 1309.159 3713.191 1267.734 3713.651 C 1226.309 3714.111 1192.277 3680.853 1191.783 3639.428 Z " fill="url(#_rgradient_0)"/></g><circle vector-effect="non-scaling-stroke" cx="1375.1123270681267" cy="3578.7204032086684" r="1" fill="rgb(255,255,255)"/><circle vector-effect="non-scaling-stroke" cx="1177.625373559144" cy="3551.5416782260454" r="1" fill="rgb(255,255,255)"/><circle vector-effect="non-scaling-stroke" cx="1215.1956597091616" cy="3566.292822409773" r="1" fill="rgb(255,255,255)"/><circle vector-effect="non-scaling-stroke" cx="1167.625373559144" cy="3583.640964913501" r="1" fill="rgb(255,255,255)"/><circle vector-effect="non-scaling-stroke" cx="1205.1956597091616" cy="3568.292822409773" r="1" fill="rgb(255,255,255)"/><path d=" M 1314.577 3559.696 C 1314.919 3559.263 1315.548 3559.19 1315.981 3559.532 C 1316.414 3559.874 1316.488 3560.504 1316.145 3560.937 C 1315.803 3561.37 1315.174 3561.443 1314.741 3561.101 C 1314.308 3560.758 1314.234 3560.129 1314.577 3559.696 Z " fill="rgb(255,255,255)"/><path d=" M 1350.755 3565.93 C 1351.005 3565.438 1351.607 3565.242 1352.099 3565.492 C 1352.592 3565.742 1352.788 3566.344 1352.538 3566.836 C 1352.288 3567.328 1351.686 3567.525 1351.194 3567.275 C 1350.702 3567.025 1350.505 3566.422 1350.755 3565.93 Z " fill="rgb(255,255,255)"/><path d=" M 1352.007 3655.684 C 1352.508 3655.453 1353.103 3655.673 1353.333 3656.174 C 1353.564 3656.676 1353.345 3657.27 1352.844 3657.501 C 1352.342 3657.732 1351.748 3657.512 1351.517 3657.011 C 1351.286 3656.51 1351.506 3655.915 1352.007 3655.684 Z " fill="rgb(255,255,255)"/><path d=" M 1352.007 3655.684 C 1352.508 3655.453 1353.103 3655.673 1353.333 3656.174 C 1353.564 3656.676 1353.345 3657.27 1352.844 3657.501 C 1352.342 3657.732 1351.748 3657.512 1351.517 3657.011 C 1351.286 3656.51 1351.506 3655.915 1352.007 3655.684 Z " fill="rgb(255,255,255)"/><path d=" M 1183.68 3658.946 C 1184.181 3658.715 1184.775 3658.935 1185.006 3659.436 C 1185.237 3659.937 1185.018 3660.532 1184.516 3660.762 C 1184.015 3660.993 1183.42 3660.774 1183.19 3660.273 C 1182.959 3659.771 1183.178 3659.177 1183.68 3658.946 Z " fill="rgb(255,255,255)"/><path d=" M 1336.052 3557.339 C 1336.302 3556.847 1336.904 3556.65 1337.396 3556.9 C 1337.888 3557.15 1338.085 3557.753 1337.835 3558.245 C 1337.585 3558.737 1336.982 3558.933 1336.49 3558.683 C 1335.998 3558.433 1335.802 3557.831 1336.052 3557.339 Z " fill="rgb(255,255,255)"/><path d=" M 1201.299 3575.679 C 1201.549 3575.187 1202.151 3574.99 1202.643 3575.24 C 1203.135 3575.49 1203.332 3576.093 1203.082 3576.585 C 1202.832 3577.077 1202.229 3577.273 1201.737 3577.023 C 1201.245 3576.773 1201.049 3576.171 1201.299 3575.679 Z " fill="rgb(255,255,255)"/><path d=" M 1337.048 3568.812 C 1337.549 3568.581 1338.143 3568.801 1338.374 3569.302 C 1338.605 3569.803 1338.386 3570.398 1337.884 3570.629 C 1337.383 3570.859 1336.789 3570.64 1336.558 3570.139 C 1336.327 3569.637 1336.546 3569.043 1337.048 3568.812 Z " fill="rgb(255,255,255)"/><path d=" M 1244.63 3718.662 C 1245.131 3718.431 1245.725 3718.65 1245.956 3719.152 C 1246.187 3719.653 1245.968 3720.247 1245.466 3720.478 C 1244.965 3720.709 1244.371 3720.49 1244.14 3719.988 C 1243.909 3719.487 1244.128 3718.893 1244.63 3718.662 Z " fill="rgb(255,255,255)"/><path d=" M 1348.123 3557.864 C 1348.373 3557.371 1348.976 3557.175 1349.468 3557.425 C 1349.96 3557.675 1350.156 3558.277 1349.906 3558.769 C 1349.656 3559.261 1349.054 3559.458 1348.562 3559.208 C 1348.07 3558.958 1347.873 3558.356 1348.123 3557.864 Z " fill="rgb(255,255,255)"/><path d=" M 1354.947 3647.724 C 1355.448 3647.494 1356.042 3647.713 1356.273 3648.214 C 1356.504 3648.716 1356.285 3649.31 1355.783 3649.541 C 1355.282 3649.772 1354.687 3649.552 1354.457 3649.051 C 1354.226 3648.55 1354.445 3647.955 1354.947 3647.724 Z " fill="rgb(255,255,255)"/><path d=" M 1354.947 3647.724 C 1355.448 3647.494 1356.042 3647.713 1356.273 3648.214 C 1356.504 3648.716 1356.285 3649.31 1355.783 3649.541 C 1355.282 3649.772 1354.687 3649.552 1354.457 3649.051 C 1354.226 3648.55 1354.445 3647.955 1354.947 3647.724 Z " fill="rgb(255,255,255)"/><path d=" M 1186.619 3650.986 C 1187.121 3650.755 1187.715 3650.975 1187.946 3651.476 C 1188.177 3651.977 1187.957 3652.572 1187.456 3652.803 C 1186.955 3653.034 1186.36 3652.814 1186.129 3652.313 C 1185.898 3651.811 1186.118 3651.217 1186.619 3650.986 Z " fill="rgb(255,255,255)"/><path d=" M 1368.393 3612.831 C 1368.643 3612.339 1369.245 3612.143 1369.737 3612.393 C 1370.229 3612.643 1370.426 3613.245 1370.176 3613.737 C 1369.926 3614.229 1369.323 3614.426 1368.831 3614.176 C 1368.339 3613.926 1368.143 3613.324 1368.393 3612.831 Z " fill="rgb(255,255,255)"/><path d=" M 1384.948 3639.179 C 1385.198 3638.687 1385.8 3638.491 1386.293 3638.741 C 1386.785 3638.991 1386.981 3639.593 1386.731 3640.085 C 1386.481 3640.577 1385.879 3640.774 1385.387 3640.524 C 1384.895 3640.274 1384.698 3639.672 1384.948 3639.179 Z " fill="rgb(255,255,255)"/><path d=" M 1365.333 3672.667 C 1365.835 3672.436 1366.429 3672.655 1366.66 3673.157 C 1366.891 3673.658 1366.671 3674.252 1366.17 3674.483 C 1365.669 3674.714 1365.074 3674.495 1364.843 3673.993 C 1364.613 3673.492 1364.832 3672.898 1365.333 3672.667 Z " fill="rgb(255,255,255)"/><path d=" M 1365.333 3672.667 C 1365.835 3672.436 1366.429 3672.655 1366.66 3673.157 C 1366.891 3673.658 1366.671 3674.252 1366.17 3674.483 C 1365.669 3674.714 1365.074 3674.495 1364.843 3673.993 C 1364.613 3673.492 1364.832 3672.898 1365.333 3672.667 Z " fill="rgb(255,255,255)"/><path d=" M 1357.666 3611.868 C 1357.916 3611.376 1358.518 3611.18 1359.01 3611.43 C 1359.502 3611.68 1359.699 3612.282 1359.449 3612.774 C 1359.199 3613.266 1358.596 3613.463 1358.104 3613.213 C 1357.612 3612.963 1357.416 3612.36 1357.666 3611.868 Z " fill="rgb(255,255,255)"/><path d=" M 1374.221 3638.216 C 1374.471 3637.724 1375.073 3637.528 1375.565 3637.778 C 1376.057 3638.028 1376.254 3638.63 1376.004 3639.122 C 1375.754 3639.614 1375.152 3639.811 1374.659 3639.561 C 1374.167 3639.311 1373.971 3638.708 1374.221 3638.216 Z " fill="rgb(255,255,255)"/><path d=" M 1357.666 3611.868 C 1357.916 3611.376 1358.518 3611.18 1359.01 3611.43 C 1359.502 3611.68 1359.699 3612.282 1359.449 3612.774 C 1359.199 3613.266 1358.596 3613.463 1358.104 3613.213 C 1357.612 3612.963 1357.416 3612.36 1357.666 3611.868 Z " fill="rgb(255,255,255)"/><path d=" M 1376.221 3640.706 C 1376.471 3640.214 1377.073 3640.018 1377.566 3640.268 C 1378.058 3640.518 1378.254 3641.12 1378.004 3641.612 C 1377.754 3642.104 1377.152 3642.301 1376.66 3642.051 C 1376.168 3641.801 1375.971 3641.198 1376.221 3640.706 Z " fill="rgb(255,255,255)"/><path d=" M 1357.517 3665.257 C 1358.018 3665.026 1358.613 3665.246 1358.844 3665.747 C 1359.074 3666.248 1358.855 3666.843 1358.354 3667.074 C 1357.852 3667.305 1357.258 3667.085 1357.027 3666.584 C 1356.796 3666.082 1357.016 3665.488 1357.517 3665.257 Z " fill="rgb(255,255,255)"/><path d=" M 1357.517 3665.257 C 1358.018 3665.026 1358.613 3665.246 1358.844 3665.747 C 1359.074 3666.248 1358.855 3666.843 1358.354 3667.074 C 1357.852 3667.305 1357.258 3667.085 1357.027 3666.584 C 1356.796 3666.082 1357.016 3665.488 1357.517 3665.257 Z " fill="rgb(255,255,255)"/><path d=" M 1358.139 3689.977 C 1358.64 3689.746 1359.235 3689.966 1359.465 3690.467 C 1359.696 3690.969 1359.477 3691.563 1358.975 3691.794 C 1358.474 3692.025 1357.88 3691.805 1357.649 3691.304 C 1357.418 3690.803 1357.638 3690.208 1358.139 3689.977 Z " fill="rgb(255,255,255)"/><path d=" M 1360.139 3709.017 C 1360.64 3708.786 1361.235 3709.005 1361.466 3709.507 C 1361.697 3710.008 1361.477 3710.603 1360.976 3710.833 C 1360.474 3711.064 1359.88 3710.845 1359.649 3710.343 C 1359.418 3709.842 1359.638 3709.248 1360.139 3709.017 Z " fill="rgb(255,255,255)"/><path d=" M 1380.393 3624.536 C 1380.643 3624.044 1381.245 3623.848 1381.737 3624.098 C 1382.229 3624.348 1382.426 3624.95 1382.176 3625.442 C 1381.926 3625.934 1381.323 3626.131 1380.831 3625.881 C 1380.339 3625.631 1380.143 3625.028 1380.393 3624.536 Z " fill="rgb(255,255,255)"/><path d=" M 1386.948 3666.713 C 1387.198 3666.22 1387.801 3666.024 1388.293 3666.274 C 1388.785 3666.524 1388.981 3667.126 1388.731 3667.618 C 1388.481 3668.11 1387.879 3668.307 1387.387 3668.057 C 1386.895 3667.807 1386.698 3667.205 1386.948 3666.713 Z " fill="rgb(255,255,255)"/><path d=" M 1355.38 3660.125 C 1355.882 3659.894 1356.476 3660.114 1356.707 3660.615 C 1356.938 3661.116 1356.718 3661.711 1356.217 3661.942 C 1355.716 3662.173 1355.121 3661.953 1354.89 3661.452 C 1354.66 3660.95 1354.879 3660.356 1355.38 3660.125 Z " fill="rgb(255,255,255)"/><path d=" M 1355.38 3660.125 C 1355.882 3659.894 1356.476 3660.114 1356.707 3660.615 C 1356.938 3661.116 1356.718 3661.711 1356.217 3661.942 C 1355.716 3662.173 1355.121 3661.953 1354.89 3661.452 C 1354.66 3660.95 1354.879 3660.356 1355.38 3660.125 Z " fill="rgb(255,255,255)"/><path d=" M 1162.853 3649.429 C 1163.355 3649.198 1163.949 3649.418 1164.18 3649.919 C 1164.411 3650.42 1164.191 3651.015 1163.69 3651.246 C 1163.189 3651.477 1162.594 3651.257 1162.363 3650.756 C 1162.133 3650.254 1162.352 3649.66 1162.853 3649.429 Z " fill="rgb(255,255,255)"/><path d=" M 1166.734 3573.267 C 1166.984 3572.775 1167.586 3572.579 1168.078 3572.829 C 1168.57 3573.079 1168.767 3573.681 1168.517 3574.173 C 1168.267 3574.665 1167.664 3574.862 1167.172 3574.612 C 1166.68 3574.362 1166.484 3573.759 1166.734 3573.267 Z " fill="rgb(255,255,255)"/><circle vector-effect="non-scaling-stroke" cx="1167.625373559144" cy="3668.1655417154443" r="1" fill="rgb(255,255,255)"/><circle vector-effect="non-scaling-stroke" cx="1181.9164853780171" cy="3627.3373297026965" r="1" fill="rgb(255,255,255)"/><circle vector-effect="non-scaling-stroke" cx="1196.6901414431582" cy="3695.724373914577" r="1" fill="rgb(255,255,255)"/><circle vector-effect="non-scaling-stroke" cx="1175.9164853780171" cy="3630.3373297026965" r="1" fill="rgb(255,255,255)"/><circle vector-effect="non-scaling-stroke" cx="1151.773474084193" cy="3690.8857308770375" r="1" fill="rgb(255,255,255)"/><circle vector-effect="non-scaling-stroke" cx="1172.9998180190519" cy="3603.9097489038013" r="1" fill="rgb(255,255,255)"/><circle vector-effect="non-scaling-stroke" cx="1162.9998180190519" cy="3607.9097489038013" r="1" fill="rgb(255,255,255)"/><circle vector-effect="non-scaling-stroke" cx="1177.773474084193" cy="3676.296793115681" r="1" fill="rgb(255,255,255)"/><circle vector-effect="non-scaling-stroke" cx="1172.9164853780171" cy="3636.3373297026965" r="1" fill="rgb(255,255,255)"/><circle vector-effect="non-scaling-stroke" cx="1155.8777737536598" cy="3642.632662029496" r="1" fill="rgb(255,255,255)"/><circle vector-effect="non-scaling-stroke" cx="1147.9164853780171" cy="3641.3373297026965" r="1" fill="rgb(255,255,255)"/><circle vector-effect="non-scaling-stroke" cx="1194.2509290992352" cy="3713.838466107137" r="1" fill="rgb(255,255,255)"/><circle vector-effect="non-scaling-stroke" cx="1208.2509290992352" cy="3705.838466107137" r="1" fill="rgb(255,255,255)"/><circle vector-effect="non-scaling-stroke" cx="1184.2509290992352" cy="3717.838466107137" r="1" fill="rgb(255,255,255)"/><path d=" M 1269.544 3739.896 C 1269.794 3739.403 1270.397 3739.207 1270.889 3739.457 C 1271.381 3739.707 1271.577 3740.309 1271.327 3740.801 C 1271.077 3741.293 1270.475 3741.49 1269.983 3741.24 C 1269.491 3740.99 1269.294 3740.388 1269.544 3739.896 Z " fill="rgb(255,255,255)"/><path d=" M 1255.837 3742.777 C 1256.338 3742.546 1256.933 3742.766 1257.164 3743.267 C 1257.394 3743.768 1257.175 3744.363 1256.674 3744.594 C 1256.172 3744.825 1255.578 3744.605 1255.347 3744.104 C 1255.116 3743.602 1255.336 3743.008 1255.837 3742.777 Z " fill="rgb(255,255,255)"/><path d=" M 1208.92 3723.35 C 1209.422 3723.119 1210.016 3723.338 1210.247 3723.839 C 1210.478 3724.341 1210.258 3724.935 1209.757 3725.166 C 1209.256 3725.397 1208.661 3725.177 1208.43 3724.676 C 1208.199 3724.175 1208.419 3723.58 1208.92 3723.35 Z " fill="rgb(255,255,255)"/><path d=" M 1266.913 3731.829 C 1267.163 3731.337 1267.765 3731.14 1268.257 3731.39 C 1268.749 3731.64 1268.946 3732.242 1268.696 3732.735 C 1268.446 3733.227 1267.843 3733.423 1267.351 3733.173 C 1266.859 3732.923 1266.663 3732.321 1266.913 3731.829 Z " fill="rgb(255,255,255)"/><path d=" M 1218.187 3728.386 C 1218.437 3727.894 1219.04 3727.697 1219.532 3727.947 C 1220.024 3728.197 1220.221 3728.799 1219.971 3729.291 C 1219.721 3729.784 1219.118 3729.98 1218.626 3729.73 C 1218.134 3729.48 1217.937 3728.878 1218.187 3728.386 Z " fill="rgb(255,255,255)"/><path d=" M 1228.897 3717.752 C 1229.399 3717.521 1229.993 3717.741 1230.224 3718.242 C 1230.455 3718.743 1230.235 3719.338 1229.734 3719.569 C 1229.233 3719.799 1228.638 3719.58 1228.407 3719.079 C 1228.176 3718.577 1228.396 3717.983 1228.897 3717.752 Z " fill="rgb(255,255,255)"/><circle vector-effect="non-scaling-stroke" cx="1179.625373559144" cy="3740.107250097438" r="1" fill="rgb(255,255,255)"/><path d=" M 1211.032 3748.228 C 1211.374 3747.795 1212.003 3747.722 1212.436 3748.064 C 1212.869 3748.406 1212.943 3749.036 1212.6 3749.469 C 1212.258 3749.902 1211.629 3749.975 1211.196 3749.633 C 1210.763 3749.29 1210.689 3748.661 1211.032 3748.228 Z " fill="rgb(255,255,255)"/><path d=" M 1172.618 3604.673 C 1172.96 3604.24 1173.589 3604.166 1174.022 3604.509 C 1174.455 3604.851 1174.529 3605.481 1174.186 3605.913 C 1173.844 3606.346 1173.215 3606.42 1172.782 3606.078 C 1172.349 3605.735 1172.275 3605.106 1172.618 3604.673 Z " fill="rgb(255,255,255)"/><circle vector-effect="non-scaling-stroke" cx="1279.737962389958" cy="3537.5416782260463" r="1" fill="rgb(255,255,255)"/><circle vector-effect="non-scaling-stroke" cx="1310.737962389958" cy="3530.5416782260463" r="1" fill="rgb(255,255,255)"/><circle vector-effect="non-scaling-stroke" cx="1336.0279469410991" cy="3535.0325706792164" r="1" fill="rgb(255,255,255)"/><circle vector-effect="non-scaling-stroke" cx="1293.737962389958" cy="3529.5416782260463" r="1" fill="rgb(255,255,255)"/><circle vector-effect="non-scaling-stroke" cx="1269.7379623899583" cy="3541.5416782260463" r="1" fill="rgb(255,255,255)"/><circle vector-effect="non-scaling-stroke" cx="1259.7379623899583" cy="3543.5416782260463" r="1" fill="rgb(255,255,255)"/><path d=" M 1293.411 3535.58 C 1293.661 3535.088 1294.264 3534.891 1294.756 3535.141 C 1295.248 3535.391 1295.444 3535.993 1295.194 3536.486 C 1294.944 3536.978 1294.342 3537.174 1293.85 3536.924 C 1293.358 3536.674 1293.161 3536.072 1293.411 3535.58 Z " fill="rgb(255,255,255)"/><path d=" M 1303.675 3552.089 C 1303.924 3551.597 1304.527 3551.4 1305.019 3551.65 C 1305.511 3551.9 1305.708 3552.503 1305.458 3552.995 C 1305.208 3553.487 1304.605 3553.683 1304.113 3553.433 C 1303.621 3553.183 1303.425 3552.581 1303.675 3552.089 Z " fill="rgb(255,255,255)"/><path d=" M 1219.188 3548.009 C 1219.438 3547.517 1220.04 3547.321 1220.532 3547.571 C 1221.024 3547.821 1221.221 3548.423 1220.971 3548.915 C 1220.721 3549.407 1220.118 3549.604 1219.626 3549.354 C 1219.134 3549.104 1218.938 3548.501 1219.188 3548.009 Z " fill="rgb(255,255,255)"/><path d=" M 1229.897 3537.376 C 1230.399 3537.145 1230.993 3537.364 1231.224 3537.866 C 1231.455 3538.367 1231.235 3538.961 1230.734 3539.192 C 1230.233 3539.423 1229.638 3539.204 1229.407 3538.702 C 1229.176 3538.201 1229.396 3537.607 1229.897 3537.376 Z " fill="rgb(255,255,255)"/><path d=" M 1269.468 3510.812 C 1269.969 3510.581 1270.564 3510.801 1270.794 3511.302 C 1271.025 3511.803 1270.806 3512.398 1270.305 3512.629 C 1269.803 3512.859 1269.209 3512.64 1268.978 3512.139 C 1268.747 3511.637 1268.967 3511.043 1269.468 3510.812 Z " fill="rgb(255,255,255)"/><path d=" M 1244.63 3520.206 C 1245.131 3519.975 1245.725 3520.194 1245.956 3520.696 C 1246.187 3521.197 1245.968 3521.791 1245.466 3522.022 C 1244.965 3522.253 1244.371 3522.034 1244.14 3521.532 C 1243.909 3521.031 1244.128 3520.437 1244.63 3520.206 Z " fill="rgb(255,255,255)"/><path d=" M 1217.814 3545.146 C 1218.156 3544.713 1218.785 3544.64 1219.218 3544.982 C 1219.651 3545.324 1219.725 3545.954 1219.382 3546.387 C 1219.04 3546.819 1218.411 3546.893 1217.978 3546.551 C 1217.545 3546.208 1217.471 3545.579 1217.814 3545.146 Z " fill="rgb(255,255,255)"/><path d=" M 1191.072 3684.486 C 1191.322 3683.994 1191.924 3683.797 1192.416 3684.047 C 1192.908 3684.297 1193.105 3684.899 1192.855 3685.391 C 1192.605 3685.884 1192.002 3686.08 1191.51 3685.83 C 1191.018 3685.58 1190.822 3684.978 1191.072 3684.486 Z " fill="rgb(255,255,255)"/><path d=" M 1200.469 3683.651 C 1200.719 3683.159 1201.321 3682.963 1201.813 3683.213 C 1202.305 3683.463 1202.502 3684.065 1202.252 3684.557 C 1202.002 3685.049 1201.399 3685.246 1200.907 3684.996 C 1200.415 3684.746 1200.219 3684.143 1200.469 3683.651 Z " fill="rgb(255,255,255)"/><path d=" M 1227.703 3728.009 C 1228.204 3727.778 1228.798 3727.998 1229.029 3728.499 C 1229.26 3729 1229.041 3729.595 1228.539 3729.826 C 1228.038 3730.057 1227.444 3729.837 1227.213 3729.336 C 1226.982 3728.835 1227.201 3728.24 1227.703 3728.009 Z " fill="rgb(255,255,255)"/><path d=" M 1219.886 3720.6 C 1220.387 3720.369 1220.982 3720.588 1221.213 3721.09 C 1221.444 3721.591 1221.224 3722.185 1220.723 3722.416 C 1220.222 3722.647 1219.627 3722.428 1219.396 3721.926 C 1219.165 3721.425 1219.385 3720.831 1219.886 3720.6 Z " fill="rgb(255,255,255)"/><path d=" M 1229.855 3744.634 C 1230.356 3744.403 1230.95 3744.622 1231.181 3745.123 C 1231.412 3745.625 1231.193 3746.219 1230.691 3746.45 C 1230.19 3746.681 1229.596 3746.461 1229.365 3745.96 C 1229.134 3745.459 1229.353 3744.864 1229.855 3744.634 Z " fill="rgb(255,255,255)"/><path d=" M 1180.344 3683.522 C 1180.594 3683.03 1181.197 3682.834 1181.689 3683.084 C 1182.181 3683.334 1182.378 3683.936 1182.128 3684.428 C 1181.878 3684.92 1181.275 3685.117 1180.783 3684.867 C 1180.291 3684.617 1180.095 3684.014 1180.344 3683.522 Z " fill="rgb(255,255,255)"/><path d=" M 1187.233 3678.389 C 1187.734 3678.158 1188.329 3678.377 1188.56 3678.879 C 1188.79 3679.38 1188.571 3679.974 1188.07 3680.205 C 1187.568 3680.436 1186.974 3680.217 1186.743 3679.715 C 1186.512 3679.214 1186.732 3678.62 1187.233 3678.389 Z " fill="rgb(255,255,255)"/><path d=" M 1170.523 3680.776 C 1170.773 3680.284 1171.376 3680.087 1171.868 3680.337 C 1172.36 3680.587 1172.556 3681.19 1172.306 3681.682 C 1172.056 3682.174 1171.454 3682.37 1170.962 3682.12 C 1170.47 3681.871 1170.273 3681.268 1170.523 3680.776 Z " fill="rgb(255,255,255)"/><circle vector-effect="non-scaling-stroke" cx="1178.8777737536598" cy="3711.9252360434903" r="1" fill="rgb(255,255,255)"/><path d=" M 1348.002 3731.853 C 1348.504 3731.622 1349.098 3731.841 1349.329 3732.343 C 1349.56 3732.844 1349.34 3733.438 1348.839 3733.669 C 1348.338 3733.9 1347.743 3733.681 1347.512 3733.179 C 1347.282 3732.678 1347.501 3732.083 1348.002 3731.853 Z " fill="rgb(255,255,255)"/><path d=" M 1348.002 3731.853 C 1348.504 3731.622 1349.098 3731.841 1349.329 3732.343 C 1349.56 3732.844 1349.34 3733.438 1348.839 3733.669 C 1348.338 3733.9 1347.743 3733.681 1347.512 3733.179 C 1347.282 3732.678 1347.501 3732.083 1348.002 3731.853 Z " fill="rgb(255,255,255)"/><path d=" M 1274.147 3734.279 C 1274.648 3734.048 1275.243 3734.267 1275.474 3734.769 C 1275.704 3735.27 1275.485 3735.864 1274.984 3736.095 C 1274.482 3736.326 1273.888 3736.106 1273.657 3735.605 C 1273.426 3735.104 1273.646 3734.509 1274.147 3734.279 Z " fill="rgb(255,255,255)"/><path d=" M 1325.409 3724.402 C 1325.659 3723.91 1326.262 3723.714 1326.754 3723.964 C 1327.246 3724.214 1327.442 3724.816 1327.192 3725.308 C 1326.942 3725.8 1326.34 3725.997 1325.848 3725.747 C 1325.356 3725.497 1325.159 3724.894 1325.409 3724.402 Z " fill="rgb(255,255,255)"/><path d=" M 1325.409 3724.402 C 1325.659 3723.91 1326.262 3723.714 1326.754 3723.964 C 1327.246 3724.214 1327.442 3724.816 1327.192 3725.308 C 1326.942 3725.8 1326.34 3725.997 1325.848 3725.747 C 1325.356 3725.497 1325.159 3724.894 1325.409 3724.402 Z " fill="rgb(255,255,255)"/><path d=" M 1332.298 3719.268 C 1332.799 3719.038 1333.393 3719.257 1333.624 3719.758 C 1333.855 3720.26 1333.636 3720.854 1333.134 3721.085 C 1332.633 3721.316 1332.039 3721.096 1331.808 3720.595 C 1331.577 3720.094 1331.796 3719.499 1332.298 3719.268 Z " fill="rgb(255,255,255)"/><path d=" M 1332.298 3719.268 C 1332.799 3719.038 1333.393 3719.257 1333.624 3719.758 C 1333.855 3720.26 1333.636 3720.854 1333.134 3721.085 C 1332.633 3721.316 1332.039 3721.096 1331.808 3720.595 C 1331.577 3720.094 1331.796 3719.499 1332.298 3719.268 Z " fill="rgb(255,255,255)"/><circle vector-effect="non-scaling-stroke" cx="1337.3607957651768" cy="3705.17658828038" r="1" fill="rgb(255,255,255)"/><circle vector-effect="non-scaling-stroke" cx="1337.3607957651768" cy="3705.17658828038" r="1" fill="rgb(255,255,255)"/><circle vector-effect="non-scaling-stroke" cx="1272.73083096237" cy="3738.0566133981965" r="1" fill="rgb(255,255,255)"/><circle vector-effect="non-scaling-stroke" cx="1327.3607957651768" cy="3709.17658828038" r="1" fill="rgb(255,255,255)"/><circle vector-effect="non-scaling-stroke" cx="1327.3607957651768" cy="3709.17658828038" r="1" fill="rgb(255,255,255)"/><circle vector-effect="non-scaling-stroke" cx="1317.3607957651768" cy="3711.17658828038" r="1" fill="rgb(255,255,255)"/><path d=" M 1306.756 3718.52 C 1307.006 3718.028 1307.608 3717.831 1308.1 3718.081 C 1308.592 3718.331 1308.789 3718.933 1308.539 3719.426 C 1308.289 3719.918 1307.687 3720.114 1307.194 3719.864 C 1306.702 3719.614 1306.506 3719.012 1306.756 3718.52 Z " fill="rgb(255,255,255)"/><path d=" M 1306.756 3718.52 C 1307.006 3718.028 1307.608 3717.831 1308.1 3718.081 C 1308.592 3718.331 1308.789 3718.933 1308.539 3719.426 C 1308.289 3719.918 1307.687 3720.114 1307.194 3719.864 C 1306.702 3719.614 1306.506 3719.012 1306.756 3718.52 Z " fill="rgb(255,255,255)"/><path d=" M 1337.407 3701.381 C 1337.908 3701.15 1338.503 3701.37 1338.734 3701.871 C 1338.965 3702.372 1338.745 3702.967 1338.244 3703.198 C 1337.743 3703.429 1337.148 3703.209 1336.917 3702.708 C 1336.686 3702.207 1336.906 3701.612 1337.407 3701.381 Z " fill="rgb(255,255,255)"/><path d=" M 1349.121 3726.813 C 1349.622 3726.582 1350.216 3726.802 1350.447 3727.303 C 1350.678 3727.805 1350.459 3728.399 1349.957 3728.63 C 1349.456 3728.861 1348.862 3728.641 1348.631 3728.14 C 1348.4 3727.639 1348.619 3727.044 1349.121 3726.813 Z " fill="rgb(255,255,255)"/><circle vector-effect="non-scaling-stroke" cx="1287.1123270681267" cy="3723.138905172492" r="1" fill="rgb(255,255,255)"/><circle vector-effect="non-scaling-stroke" cx="1298.1123270681267" cy="3722.138905172492" r="1" fill="rgb(255,255,255)"/><path d=" M 1300.597 3748.396 C 1300.847 3747.904 1301.45 3747.707 1301.942 3747.957 C 1302.434 3748.207 1302.63 3748.809 1302.38 3749.301 C 1302.13 3749.794 1301.528 3749.99 1301.036 3749.74 C 1300.544 3749.49 1300.347 3748.888 1300.597 3748.396 Z " fill="rgb(255,255,255)"/><path d=" M 1283.221 3761.268 C 1283.471 3760.775 1284.073 3760.579 1284.565 3760.829 C 1285.057 3761.079 1285.254 3761.681 1285.004 3762.173 C 1284.754 3762.665 1284.151 3762.862 1283.659 3762.612 C 1283.167 3762.362 1282.971 3761.76 1283.221 3761.268 Z " fill="rgb(255,255,255)"/><path d=" M 1309.994 3747.561 C 1310.244 3747.069 1310.847 3746.873 1311.339 3747.123 C 1311.831 3747.373 1312.027 3747.975 1311.777 3748.467 C 1311.527 3748.959 1310.925 3749.156 1310.433 3748.906 C 1309.941 3748.656 1309.744 3748.053 1309.994 3747.561 Z " fill="rgb(255,255,255)"/></g></g></svg>