<?xml version="1.0" encoding="UTF-8" standalone="no"?><!-- Generator: Gravit.io --><svg xmlns="http://www.w3.org/2000/svg" xmlns:xlink="http://www.w3.org/1999/xlink" style="isolation:isolate" viewBox="-2425.611 4763.779 900 900" width="900pt" height="900pt"><defs><clipPath id="_clipPath_zBAEzVXKIT6vowzw2DggnJGJrKKmrKcN"><rect x="-2425.611" y="4763.779" width="900" height="900"/></clipPath></defs><g clip-path="url(#_clipPath_zBAEzVXKIT6vowzw2DggnJGJrKKmrKcN)"><g><radialGradient id="_rgradient_5" fx="0.5" fy="0.5" cx="0.5" cy="0.5" r="0.5" gradientTransform="matrix(900,0,0,900,-2425.611,4763.779)" gradientUnits="userSpaceOnUse"><stop offset="83.75%" stop-opacity="0.1" style="stop-color:rgb(26,207,252)"/><stop offset="97.5%" stop-opacity="1" style="stop-color:rgb(191,242,254)"/></radialGradient><mask id="_mask_YMJxtgukxrz8PEHX6O8NZiDGIzIskJBh"><circle vector-effect="non-scaling-stroke" cx="-1975.6106699636543" cy="5213.7792504607505" r="450" fill="white" stroke="none"/></mask><circle vector-effect="non-scaling-stroke" cx="-1975.6106699636543" cy="5213.7792504607505" r="450" fill="url(#_rgradient_5)"/><circle vector-effect="non-scaling-stroke" cx="-1975.6106699636543" cy="5213.7792504607505" r="450" fill="url(#_rgradient_5)" mask="url(#_mask_YMJxtgukxrz8PEHX6O8NZiDGIzIskJBh)" stroke-width="2" stroke="rgb(217,232,235)" stroke-linejoin="miter" stroke-linecap="square" stroke-miterlimit="3"/><linearGradient id="_lgradient_5" x1="0" y1="0.5" x2="1" y2="0.5" gradientTransform="matrix(302.878,-73.639,77.126,317.219,-1957.109,4894.841)" gradientUnits="userSpaceOnUse"><stop offset="2.083333333333333%" stop-opacity="1" style="stop-color:rgb(107,224,253)"/><stop offset="97.08333333333333%" stop-opacity="1" style="stop-color:rgb(163,235,254)"/></linearGradient><mask id="_mask_SvpGrRxVOgbkRr207W9UHODAVyDc3cXM"><path d=" M -1690.862 5142.699 C -1669.611 5153.967 -1653.161 5157.094 -1645.161 5149.766 C -1625.517 5131.772 -1664.216 5057.505 -1731.524 4984.028 C -1791.355 4918.713 -1853.781 4875.864 -1880.712 4879.786 L -1889.072 4883.497 C -1896.702 4890.525 -1895.499 4906.071 -1887.216 4926.772 C -1857.95 4944.65 -1818.077 4979.079 -1778.318 5022.482 C -1737.092 5067.487 -1705.488 5111.77 -1690.862 5142.699 Z " fill-rule="evenodd" fill="white" stroke="none"/></mask><path d=" M -1690.862 5142.699 C -1669.611 5153.967 -1653.161 5157.094 -1645.161 5149.766 C -1625.517 5131.772 -1664.216 5057.505 -1731.524 4984.028 C -1791.355 4918.713 -1853.781 4875.864 -1880.712 4879.786 L -1889.072 4883.497 C -1896.702 4890.525 -1895.499 4906.071 -1887.216 4926.772 C -1857.95 4944.65 -1818.077 4979.079 -1778.318 5022.482 C -1737.092 5067.487 -1705.488 5111.77 -1690.862 5142.699 Z " fill-rule="evenodd" fill="url(#_lgradient_5)"/><path d=" M -1690.862 5142.699 C -1669.611 5153.967 -1653.161 5157.094 -1645.161 5149.766 C -1625.517 5131.772 -1664.216 5057.505 -1731.524 4984.028 C -1791.355 4918.713 -1853.781 4875.864 -1880.712 4879.786 L -1889.072 4883.497 C -1896.702 4890.525 -1895.499 4906.071 -1887.216 4926.772 C -1857.95 4944.65 -1818.077 4979.079 -1778.318 5022.482 C -1737.092 5067.487 -1705.488 5111.77 -1690.862 5142.699 Z " fill-rule="evenodd" fill="url(#_lgradient_5)" mask="url(#_mask_SvpGrRxVOgbkRr207W9UHODAVyDc3cXM)" vector-effect="non-scaling-stroke" stroke-width="2" stroke="rgb(191,241,255)" stroke-linejoin="miter" stroke-linecap="square" stroke-miterlimit="3"/></g></g></svg>