<?xml version="1.0" encoding="UTF-8" standalone="no"?><!-- Generator: Gravit.io --><svg xmlns="http://www.w3.org/2000/svg" xmlns:xlink="http://www.w3.org/1999/xlink" style="isolation:isolate" viewBox="-1817 -7459.991 1667.867 1440.991" width="1667.867pt" height="1440.991pt"><defs><clipPath id="_clipPath_WuPJcBqYdXD6V7XbSZ5HbB9gRHmewAOc"><rect x="-1817" y="-7459.991" width="1667.867" height="1440.991"/></clipPath></defs><g clip-path="url(#_clipPath_WuPJcBqYdXD6V7XbSZ5HbB9gRHmewAOc)"><g><path d=" M -875.601 -7340.761 L -517.679 -6720.822 L -159.756 -6100.883 C -134.939 -6057.898 -155.088 -6023 -204.722 -6023 L -920.566 -6023 L -1636.41 -6023 C -1686.045 -6023 -1706.194 -6057.898 -1681.376 -6100.883 L -1323.454 -6720.822 L -965.532 -7340.761 C -940.715 -7383.746 -900.418 -7383.746 -875.601 -7340.761 Z " fill="rgb(116,116,116)"/></g><g><path d=" M -955.001 -7382.729 L -596.816 -6762.335 L -238.632 -6141.94 C -213.796 -6098.924 -233.959 -6064 -283.63 -6064 L -1000 -6064 L -1716.37 -6064 C -1766.041 -6064 -1786.204 -6098.924 -1761.368 -6141.94 L -1403.184 -6762.335 L -1044.999 -7382.729 C -1020.163 -7425.745 -979.837 -7425.745 -955.001 -7382.729 Z " fill="rgb(255,0,0)" vector-effect="non-scaling-stroke" stroke-width="30" stroke="rgb(163,0,0)" stroke-linejoin="miter" stroke-linecap="square" stroke-miterlimit="3"/><path d=" M -990 -7123.205 L -731.836 -6676.051 L -473.671 -6228.897 C -468.152 -6219.337 -472.633 -6211.577 -483.671 -6211.577 L -1000 -6211.577 L -1516.329 -6211.577 C -1527.367 -6211.577 -1531.848 -6219.337 -1526.329 -6228.897 L -1268.164 -6676.051 L -1010 -7123.205 C -1004.481 -7132.764 -995.519 -7132.764 -990 -7123.205 Z " fill="rgb(255,255,255)"/><path d=" M -1096.934 -6739.496 C -1141.629 -6739.496 -1181.46 -6709.715 -1193.869 -6665.045 L -1211.737 -6590.595 L -1223.351 -6590.595 C -1238.291 -6590.595 -1248.168 -6580.718 -1248.168 -6565.778 L -1248.168 -6540.961 C -1248.168 -6526.021 -1238.291 -6516.144 -1223.351 -6516.144 L -1223.351 -6342.427 C -1223.351 -6327.487 -1213.474 -6317.61 -1198.534 -6317.61 L -1148.901 -6317.61 C -1133.961 -6317.61 -1124.084 -6327.487 -1124.084 -6342.427 L -1124.084 -6367.244 L -875.916 -6367.244 L -875.916 -6342.427 C -875.916 -6327.487 -866.039 -6317.61 -851.099 -6317.61 L -801.466 -6317.61 C -786.526 -6317.61 -776.649 -6327.487 -776.649 -6342.427 L -776.649 -6516.144 C -761.709 -6516.144 -751.832 -6526.021 -751.832 -6540.961 L -751.832 -6565.778 C -751.832 -6580.718 -761.709 -6590.595 -776.649 -6590.595 L -788.288 -6590.595 L -806.106 -6665.045 C -818.515 -6709.715 -858.371 -6739.496 -903.066 -6739.496 L -1096.934 -6739.496 Z  M -1096.934 -6689.862 L -903.066 -6689.862 C -880.755 -6689.862 -860.703 -6674.922 -855.74 -6652.637 L -834.819 -6565.778 L -1165.181 -6565.778 L -1144.26 -6652.637 C -1139.297 -6674.922 -1119.245 -6689.862 -1096.934 -6689.862 Z  M -1136.492 -6491.328 C -1116.639 -6491.328 -1099.267 -6473.956 -1099.267 -6454.102 C -1099.267 -6434.249 -1116.639 -6416.877 -1136.492 -6416.877 C -1156.346 -6416.877 -1173.718 -6434.249 -1173.718 -6454.102 C -1173.718 -6473.956 -1156.346 -6491.328 -1136.492 -6491.328 Z  M -863.508 -6491.328 C -843.654 -6491.328 -826.282 -6473.956 -826.282 -6454.102 C -826.282 -6434.249 -843.654 -6416.877 -863.508 -6416.877 C -883.361 -6416.877 -900.733 -6434.249 -900.733 -6454.102 C -900.733 -6473.956 -883.361 -6491.328 -863.508 -6491.328 Z " fill="rgb(0,0,0)"/></g></g></svg>