<?xml version="1.0" encoding="UTF-8" standalone="no"?><!-- Generator: Gravit.io --><svg xmlns="http://www.w3.org/2000/svg" xmlns:xlink="http://www.w3.org/1999/xlink" style="isolation:isolate" viewBox="-1807.531 14413.4 691.7 292.1" width="691.7pt" height="292.1pt"><defs><clipPath id="_clipPath_DTuIFpLQAR5y6pfD3x1JRo3vnQ5iwcuM"><rect x="-1807.531" y="14413.4" width="691.7" height="292.1"/></clipPath></defs><g clip-path="url(#_clipPath_DTuIFpLQAR5y6pfD3x1JRo3vnQ5iwcuM)"><path d="M -1793.53 14413.4 L -1129.83 14413.4 C -1122.103 14413.4 -1115.83 14419.673 -1115.83 14427.4 L -1115.83 14691.5 C -1115.83 14699.227 -1122.103 14705.5 -1129.83 14705.5 L -1793.53 14705.5 C -1801.257 14705.5 -1807.53 14699.227 -1807.53 14691.5 L -1807.53 14427.4 C -1807.53 14419.673 -1801.257 14413.4 -1793.53 14413.4 Z" style="stroke:none;fill:#FFFFFF;stroke-miterlimit:10;"/><path d="M -1789.693 14418.42 L -1133.677 14418.42 C -1126.581 14418.42 -1120.82 14424.181 -1120.82 14431.277 L -1120.82 14687.623 C -1120.82 14694.719 -1126.581 14700.48 -1133.677 14700.48 L -1789.693 14700.48 C -1796.789 14700.48 -1802.55 14694.719 -1802.55 14687.623 L -1802.55 14431.277 C -1802.55 14424.181 -1796.789 14418.42 -1789.693 14418.42 Z" style="stroke:none;fill:#023580;stroke-miterlimit:10;"/></g></svg>