<?xml version="1.0" encoding="UTF-8" standalone="no"?><!-- Generator: Gravit.io --><svg xmlns="http://www.w3.org/2000/svg" xmlns:xlink="http://www.w3.org/1999/xlink" style="isolation:isolate" viewBox="4404.361 -1877.2 695.571 525.321" width="695.571pt" height="525.321pt"><defs><clipPath id="_clipPath_4g2w4LaqXEzHGLO0Amst5S58MxBSf82J"><rect x="4404.361" y="-1877.2" width="695.571" height="525.321"/></clipPath></defs><g clip-path="url(#_clipPath_4g2w4LaqXEzHGLO0Amst5S58MxBSf82J)"><path d="M 4422.084 -1877.2 L 5082.208 -1877.2 C 5091.99 -1877.2 5099.932 -1869.258 5099.932 -1859.476 L 5099.932 -1369.601 C 5099.932 -1359.82 5091.99 -1351.878 5082.208 -1351.878 L 4422.084 -1351.878 C 4412.302 -1351.878 4404.361 -1359.82 4404.361 -1369.601 L 4404.361 -1859.476 C 4404.361 -1869.258 4412.302 -1877.2 4422.084 -1877.2 Z" style="stroke:none;fill:#FFFFFF;stroke-miterlimit:10;"/><path d="M 4428.652 -1871.973 L 5075.64 -1871.973 C 5085.227 -1871.973 5093.011 -1864.189 5093.011 -1854.602 L 5093.011 -1374.476 C 5093.011 -1364.889 5085.227 -1357.105 5075.64 -1357.105 L 4428.652 -1357.105 C 4419.065 -1357.105 4411.282 -1364.889 4411.282 -1374.476 L 4411.282 -1854.602 C 4411.282 -1864.189 4419.065 -1871.973 4428.652 -1871.973 Z" style="stroke:none;fill:#023580;stroke-miterlimit:10;"/></g></svg>