<?xml version="1.0" encoding="UTF-8" standalone="no"?><!-- Generator: Gravit.io --><svg xmlns="http://www.w3.org/2000/svg" xmlns:xlink="http://www.w3.org/1999/xlink" style="isolation:isolate" viewBox="-2.263 -5377.924 1667.867 1440.991" width="1667.867pt" height="1440.991pt"><defs><clipPath id="_clipPath_qSilg36yYqGduEHj7XJBB1fk0aSYpjPZ"><rect x="-2.263" y="-5377.924" width="1667.867" height="1440.991"/></clipPath></defs><g clip-path="url(#_clipPath_qSilg36yYqGduEHj7XJBB1fk0aSYpjPZ)"><g/><g><path d=" M 939.137 -5258.694 L 1297.059 -4638.755 L 1654.981 -4018.816 C 1679.798 -3975.831 1659.65 -3940.932 1610.015 -3940.932 L 894.171 -3940.932 L 178.327 -3940.932 C 128.692 -3940.932 108.544 -3975.831 133.361 -4018.816 L 491.283 -4638.755 L 849.205 -5258.694 C 874.022 -5301.679 914.319 -5301.679 939.137 -5258.694 Z " fill="rgb(116,116,116)"/></g><g><path d=" M 859.736 -5300.661 L 1217.921 -4680.267 L 1576.106 -4059.873 C 1600.941 -4016.856 1580.778 -3981.932 1531.107 -3981.932 L 814.737 -3981.932 L 98.368 -3981.932 C 48.697 -3981.932 28.533 -4016.856 53.369 -4059.873 L 411.554 -4680.267 L 769.739 -5300.661 C 794.574 -5343.678 834.901 -5343.678 859.736 -5300.661 Z " fill="rgb(255,0,0)" vector-effect="non-scaling-stroke" stroke-width="30" stroke="rgb(163,0,0)" stroke-linejoin="miter" stroke-linecap="square" stroke-miterlimit="3"/><path d=" M 824.737 -5041.138 L 1082.902 -4593.983 L 1341.066 -4146.829 C 1346.585 -4137.27 1342.105 -4129.509 1331.067 -4129.509 L 814.737 -4129.509 L 298.408 -4129.509 C 287.37 -4129.509 282.889 -4137.27 288.408 -4146.829 L 546.573 -4593.983 L 804.738 -5041.138 C 810.257 -5050.697 819.218 -5050.697 824.737 -5041.138 Z " fill="rgb(255,255,255)"/></g><path d=" M 807.545 -4758.091 C 730.321 -4758.091 667.773 -4695.543 667.773 -4618.318 C 667.773 -4541.094 730.321 -4478.545 807.545 -4478.545 C 884.77 -4478.545 947.318 -4541.094 947.318 -4618.318 C 947.318 -4695.543 884.77 -4758.091 807.545 -4758.091 Z  M 423.17 -4373.716 M 807.545 -4408.659 C 594.322 -4408.659 528 -4268.886 528 -4268.886 L 528 -4199 L 1087.091 -4199 L 1087.091 -4268.886 C 1087.091 -4268.886 1020.769 -4408.659 807.545 -4408.659 Z " fill="rgb(0,0,0)"/></g></svg>