<?xml version="1.0" encoding="UTF-8" standalone="no"?><!-- Generator: Gravit.io --><svg xmlns="http://www.w3.org/2000/svg" xmlns:xlink="http://www.w3.org/1999/xlink" style="isolation:isolate" viewBox="-875 1978.009 1667.867 1440.991" width="1667.867pt" height="1440.991pt"><defs><clipPath id="_clipPath_Lb5eaAPMRpAs9XWBGp49aXpgCQXg7Vv8"><rect x="-875" y="1978.009" width="1667.867" height="1440.991"/></clipPath></defs><g clip-path="url(#_clipPath_Lb5eaAPMRpAs9XWBGp49aXpgCQXg7Vv8)"><g><path d=" M 66.399 2097.239 L 424.321 2717.178 L 782.244 3337.117 C 807.061 3380.102 786.912 3415 737.278 3415 L 21.434 3415 L -694.41 3415 C -744.045 3415 -764.194 3380.102 -739.376 3337.117 L -381.454 2717.178 L -23.532 2097.239 C 1.285 2054.254 41.582 2054.254 66.399 2097.239 Z " fill="rgb(116,116,116)"/></g><g><path d=" M -13.001 2055.271 L 345.184 2675.665 L 703.368 3296.06 C 728.204 3339.076 708.041 3374 658.37 3374 L -58 3374 L -774.37 3374 C -824.041 3374 -844.204 3339.076 -819.368 3296.06 L -461.184 2675.665 L -102.999 2055.271 C -78.163 2012.255 -37.837 2012.255 -13.001 2055.271 Z " fill="rgb(255,0,0)" vector-effect="non-scaling-stroke" stroke-width="30" stroke="rgb(163,0,0)" stroke-linejoin="miter" stroke-linecap="square" stroke-miterlimit="3"/><path d=" M -48 2314.795 L 210.164 2761.949 L 468.329 3209.103 C 473.848 3218.663 469.367 3226.423 458.329 3226.423 L -58 3226.423 L -574.329 3226.423 C -585.367 3226.423 -589.848 3218.663 -584.329 3209.103 L -326.164 2761.949 L -68 2314.795 C -62.481 2305.236 -53.519 2305.236 -48 2314.795 Z " fill="rgb(255,255,255)"/></g><path d=" M -69.292 2923.128 L -222.48 2918.285 L -279.771 3004.267 L -310 3006.007 L -279.771 2889.457 L -268.284 2889.457 L -268.284 2889.457 L -279.771 2889.457 L -310 2772.907 L -279.771 2772.907 L -222.199 2860.62 L -68.22 2855.752 Q -116.138 2669.755 -122.277 2633.494 C -126.912 2606.114 -85.012 2578.944 -65.727 2616.183 Q -40.113 2665.64 50.138 2852.009 L 182.464 2847.826 L 182.465 2847.857 C 183.232 2847.836 184.002 2847.826 184.775 2847.826 C 217.462 2847.826 244 2866.48 244 2889.457 C 244 2912.434 217.462 2931.088 184.775 2931.088 C 184.002 2931.088 183.232 2931.078 182.465 2931.057 L 182.464 2931.088 L 48.137 2926.841 Q -40.399 3109.629 -65.727 3158.535 C -85.012 3195.774 -126.912 3168.604 -122.277 3141.224 Q -116.207 3105.37 -69.292 2923.128 Z " fill-rule="evenodd" fill="rgb(0,0,0)"/></g></svg>