<?xml version="1.0" encoding="UTF-8" standalone="no"?><!-- Generator: Gravit.io --><svg xmlns="http://www.w3.org/2000/svg" xmlns:xlink="http://www.w3.org/1999/xlink" style="isolation:isolate" viewBox="-889.767 2142.338 1667.867 1440.991" width="1667.867pt" height="1440.991pt"><defs><clipPath id="_clipPath_VHbVw1SleQvdWAPUj1p0O8CbtSuEBUNL"><rect x="-889.767" y="2142.338" width="1667.867" height="1440.991"/></clipPath></defs><g clip-path="url(#_clipPath_VHbVw1SleQvdWAPUj1p0O8CbtSuEBUNL)"><g><path d=" M 51.632 2261.568 L 409.555 2881.507 L 767.477 3501.446 C 792.294 3544.431 772.145 3579.329 722.511 3579.329 L 6.667 3579.329 L -709.177 3579.329 C -758.812 3579.329 -778.961 3544.431 -754.143 3501.446 L -396.221 2881.507 L -38.299 2261.568 C -13.482 2218.583 26.815 2218.583 51.632 2261.568 Z " fill="rgb(116,116,116)"/></g><g><path d=" M -27.768 2219.6 L 330.417 2839.994 L 688.601 3460.389 C 713.437 3503.405 693.274 3538.329 643.603 3538.329 L -72.767 3538.329 L -789.137 3538.329 C -838.808 3538.329 -858.971 3503.405 -834.135 3460.389 L -475.951 2839.994 L -117.766 2219.6 C -92.93 2176.584 -52.604 2176.584 -27.768 2219.6 Z " fill="rgb(255,0,0)" vector-effect="non-scaling-stroke" stroke-width="30" stroke="rgb(163,0,0)" stroke-linejoin="miter" stroke-linecap="square" stroke-miterlimit="3"/><path d=" M -62.767 2479.124 L 195.397 2926.278 L 453.562 3373.432 C 459.081 3382.991 454.6 3390.752 443.562 3390.752 L -72.767 3390.752 L -589.096 3390.752 C -600.134 3390.752 -604.615 3382.991 -599.096 3373.432 L -340.931 2926.278 L -82.767 2479.124 C -77.248 2469.564 -68.286 2469.564 -62.767 2479.124 Z " fill="rgb(255,255,255)"/></g><g><path d=" M -347.767 2752 L 202.233 2752 L 202.233 3302 L -347.767 3302 L -347.767 2752 Z " fill="none"/><path d=" M 110.566 3233.25 C 78.712 3233.25 46.858 3222.479 18.9 3203 C -37.017 3242.187 -108.517 3242.187 -164.434 3203 C -192.392 3222.479 -224.246 3233.25 -256.1 3233.25 L -301.934 3233.25 L -301.934 3279.083 L -256.1 3279.083 C -224.475 3279.083 -193.309 3271.062 -164.434 3256.396 C -106.898 3285.96 -38.636 3285.96 18.9 3256.396 C 47.775 3271.292 78.941 3279.083 110.566 3279.083 L 156.4 3279.083 L 156.4 3233.25 L 110.566 3233.25 Z  M -257.246 3187.417 L -256.1 3187.417 C -219.434 3187.417 -186.892 3167.25 -164.434 3141.583 C -141.975 3167.25 -109.434 3187.417 -72.767 3187.417 C -36.1 3187.417 -3.559 3167.25 18.9 3141.583 C 41.358 3167.25 73.9 3187.417 110.566 3187.417 L 111.712 3187.417 L 155.025 3034.333 C 156.858 3028.375 156.4 3021.958 153.65 3016.458 C 150.9 3010.958 145.858 3006.833 139.9 3005 L 110.566 2995.375 L 110.566 2889.5 C 110.566 2864.292 89.941 2843.667 64.733 2843.667 L -4.017 2843.667 L -4.017 2774.917 L -141.517 2774.917 L -141.517 2843.667 L -210.267 2843.667 C -235.475 2843.667 -256.1 2864.292 -256.1 2889.5 L -256.1 2995.375 L -285.663 3005 C -291.6 3006.824 -296.551 3010.964 -299.398 3016.484 C -302.244 3022.004 -302.745 3028.439 -300.788 3034.333 L -257.246 3187.417 Z  M -210.267 2889.5 L 64.733 2889.5 L 64.733 2980.479 L -72.767 2935.333 L -210.267 2980.479 L -210.267 2889.5 Z " fill="rgb(0,0,0)"/></g></g></svg>