<?xml version="1.0" encoding="UTF-8" standalone="no"?><!-- Generator: Gravit.io --><svg xmlns="http://www.w3.org/2000/svg" xmlns:xlink="http://www.w3.org/1999/xlink" style="isolation:isolate" viewBox="-1108 1689.319 2247.998 977.362" width="2247.998pt" height="977.362pt"><defs><clipPath id="_clipPath_wgeqkjRBW1JJwaDEdUXadNjWQV4bwEQS"><rect x="-1108" y="1689.319" width="2247.998" height="977.362"/></clipPath></defs><g clip-path="url(#_clipPath_wgeqkjRBW1JJwaDEdUXadNjWQV4bwEQS)"><g><path d=" M 359.519 2663.554 L 359.519 2665.671 L -699.92 2665.671 L -699.92 2666.681 L -872.43 2606.615 L -1044.939 2546.549 L -1041.361 2545.303 C -1080.335 2530.198 -1108 2492.326 -1108 2448.045 L -1108 1906.571 C -1108 1862.995 -1081.209 1825.626 -1043.214 1810.052 L -1044.939 1809.451 L -872.43 1749.385 L -699.92 1689.319 L -699.92 1690.086 L 323.46 1690.086 C 332.395 1689.365 342.328 1689.373 353.169 1690.086 L 359.519 1690.086 L 359.519 1690.576 C 447.372 1698.308 590.168 1749.362 744.319 1833.21 C 949.303 1944.709 1108.254 2078.237 1135.753 2156.338 C 1136.045 2157.06 1136.31 2157.8 1136.554 2158.552 C 1136.805 2159.326 1137.033 2160.11 1137.229 2160.909 C 1140.522 2172.06 1140.924 2181.973 1138.186 2190.414 C 1136.991 2194.099 1135.223 2197.426 1132.917 2200.409 C 1101.684 2283.279 946.252 2416.406 745.823 2525.427 C 591.649 2609.288 448.248 2658.544 359.519 2663.554 L 359.519 2663.554 Z " fill-rule="evenodd" fill="rgb(255,255,255)"/><mask id="_mask_DlKHgB5BXlLqdoQDgLgbxaZEJbzAayRL"><path d=" M 315.694 2603.477 L 315.694 2603.598 L 313.337 2603.598 C 306.362 2603.923 299.787 2603.925 293.643 2603.598 L -688.912 2603.598 L -688.912 2604.48 L -839.463 2552.059 L -990.015 2499.639 L -986.892 2498.551 C -1020.906 2485.369 -1045.049 2452.318 -1045.049 2413.672 L -1045.049 1941.12 C -1045.049 1903.09 -1021.668 1870.478 -988.51 1856.886 L -990.015 1856.361 L -839.463 1803.941 L -688.912 1751.52 L -688.912 1752.19 L 284.325 1752.19 C 292.123 1751.561 300.792 1751.567 310.253 1752.19 L 315.694 1752.19 L 315.694 1752.608 C 392.357 1759.327 517.027 1803.889 651.615 1877.096 C 860.314 1990.615 1014.336 2130.3 995.35 2188.834 C 994.538 2191.337 993.423 2193.651 992.005 2195.772 C 967.903 2267.799 830.691 2386.222 652.918 2482.919 C 518.314 2556.136 393.121 2599.129 315.694 2603.477 L 315.694 2603.477 Z " fill-rule="evenodd" fill="white" stroke="none"/></mask><path d=" M 315.694 2603.477 L 315.694 2603.598 L 313.337 2603.598 C 306.362 2603.923 299.787 2603.925 293.643 2603.598 L -688.912 2603.598 L -688.912 2604.48 L -839.463 2552.059 L -990.015 2499.639 L -986.892 2498.551 C -1020.906 2485.369 -1045.049 2452.318 -1045.049 2413.672 L -1045.049 1941.12 C -1045.049 1903.09 -1021.668 1870.478 -988.51 1856.886 L -990.015 1856.361 L -839.463 1803.941 L -688.912 1751.52 L -688.912 1752.19 L 284.325 1752.19 C 292.123 1751.561 300.792 1751.567 310.253 1752.19 L 315.694 1752.19 L 315.694 1752.608 C 392.357 1759.327 517.027 1803.889 651.615 1877.096 C 860.314 1990.615 1014.336 2130.3 995.35 2188.834 C 994.538 2191.337 993.423 2193.651 992.005 2195.772 C 967.903 2267.799 830.691 2386.222 652.918 2482.919 C 518.314 2556.136 393.121 2599.129 315.694 2603.477 L 315.694 2603.477 Z " fill-rule="evenodd" fill="rgb(178,133,86)"/><path d=" M 315.694 2603.477 L 315.694 2603.598 L 313.337 2603.598 C 306.362 2603.923 299.787 2603.925 293.643 2603.598 L -688.912 2603.598 L -688.912 2604.48 L -839.463 2552.059 L -990.015 2499.639 L -986.892 2498.551 C -1020.906 2485.369 -1045.049 2452.318 -1045.049 2413.672 L -1045.049 1941.12 C -1045.049 1903.09 -1021.668 1870.478 -988.51 1856.886 L -990.015 1856.361 L -839.463 1803.941 L -688.912 1751.52 L -688.912 1752.19 L 284.325 1752.19 C 292.123 1751.561 300.792 1751.567 310.253 1752.19 L 315.694 1752.19 L 315.694 1752.608 C 392.357 1759.327 517.027 1803.889 651.615 1877.096 C 860.314 1990.615 1014.336 2130.3 995.35 2188.834 C 994.538 2191.337 993.423 2193.651 992.005 2195.772 C 967.903 2267.799 830.691 2386.222 652.918 2482.919 C 518.314 2556.136 393.121 2599.129 315.694 2603.477 L 315.694 2603.477 Z " fill-rule="evenodd" fill="rgb(178,133,86)" mask="url(#_mask_DlKHgB5BXlLqdoQDgLgbxaZEJbzAayRL)" vector-effect="non-scaling-stroke" stroke-width="2" stroke="rgb(170,170,170)" stroke-linejoin="miter" stroke-linecap="square" stroke-miterlimit="3"/><g><defs><filter id="UfGWNfcRTQ84e6CIlCgTiPs9IVPL5Jnp" x="-200%" y="-200%" width="400%" height="400%" filterUnits="objectBoundingBox" color-interpolation-filters="sRGB"><feGaussianBlur xmlns="http://www.w3.org/2000/svg" in="SourceGraphic" stdDeviation="8.587218125678056"/><feOffset xmlns="http://www.w3.org/2000/svg" dx="0" dy="0" result="pf_100_offsetBlur"/><feFlood xmlns="http://www.w3.org/2000/svg" flood-color="#000000" flood-opacity="0.65"/><feComposite xmlns="http://www.w3.org/2000/svg" in2="pf_100_offsetBlur" operator="in" result="pf_100_dropShadow"/><feBlend xmlns="http://www.w3.org/2000/svg" in="SourceGraphic" in2="pf_100_dropShadow" mode="normal"/></filter></defs><g filter="url(#UfGWNfcRTQ84e6CIlCgTiPs9IVPL5Jnp)"><path d=" M -525.078 1968.33 C -525.056 1969.208 -525.045 1970.089 -525.045 1970.973 L -525.045 2386.314 C -525.045 2387.197 -525.056 2388.078 -525.078 2388.957 L -525.078 2482.728 L -525.078 2482.728 L -525.078 2482.728 L -525.078 2482.728 L -525.078 2482.728 L -525.078 2483.904 L -525.088 2483.904 C -525.836 2525.647 -566.384 2552.837 -616.221 2544.722 L -761.01 2521.146 L -905.799 2497.57 C -921.015 2495.092 -931.628 2492.147 -937.63 2489.017 C -985.219 2479.072 -1021 2436.838 -1021 2386.314 L -1021 1970.973 C -1021 1921.577 -986.8 1880.105 -940.803 1868.976 C -935.881 1865.11 -924.209 1861.428 -905.799 1858.43 L -761.01 1834.854 L -616.221 1811.278 C -566.384 1803.163 -525.836 1830.353 -525.088 1872.096 L -525.078 1872.096 L -525.078 1873.272 L -525.078 1873.272 L -525.078 1873.272 L -525.078 1873.272 L -525.078 1873.272 L -525.078 1968.33 Z " fill-rule="evenodd" fill="rgb(232,232,232)"/></g></g><g><defs><filter id="Zw8wbVW65KEhYnTKHCVZ0QP3iswdx57R" x="-200%" y="-200%" width="400%" height="400%" filterUnits="objectBoundingBox" color-interpolation-filters="sRGB"><feGaussianBlur xmlns="http://www.w3.org/2000/svg" in="SourceGraphic" stdDeviation="8.587218125678056"/><feOffset xmlns="http://www.w3.org/2000/svg" dx="0" dy="0" result="pf_100_offsetBlur"/><feFlood xmlns="http://www.w3.org/2000/svg" flood-color="#000000" flood-opacity="0.65"/><feComposite xmlns="http://www.w3.org/2000/svg" in2="pf_100_offsetBlur" operator="in" result="pf_100_dropShadow"/><feBlend xmlns="http://www.w3.org/2000/svg" in="SourceGraphic" in2="pf_100_dropShadow" mode="normal"/></filter></defs><g filter="url(#Zw8wbVW65KEhYnTKHCVZ0QP3iswdx57R)"><path d=" M -512.331 1968.33 C -512.309 1969.208 -512.298 1970.089 -512.298 1970.973 L -512.298 2386.314 C -512.298 2387.197 -512.309 2388.078 -512.331 2388.957 L -512.331 2482.728 L -512.331 2482.728 L -512.331 2482.728 L -512.331 2482.728 L -512.331 2482.728 L -512.331 2483.904 L -512.341 2483.904 C -513.089 2525.647 -553.637 2552.837 -603.475 2544.722 L -748.263 2521.146 L -893.052 2497.57 C -908.268 2495.092 -918.881 2492.147 -924.883 2489.017 C -972.473 2479.072 -1008.253 2436.838 -1008.253 2386.314 L -1008.253 1970.973 C -1008.253 1921.577 -974.053 1880.105 -928.057 1868.976 C -923.134 1865.11 -911.462 1861.428 -893.052 1858.43 L -748.263 1834.854 L -603.475 1811.278 C -553.637 1803.163 -513.089 1830.353 -512.341 1872.096 L -512.331 1872.096 L -512.331 1873.272 L -512.331 1873.272 L -512.331 1873.272 L -512.331 1873.272 L -512.331 1873.272 L -512.331 1968.33 Z " fill-rule="evenodd" fill="rgb(255,255,255)"/></g></g><defs><filter id="Q2EF2q4PvQ8G6QyqdETelFh3PfdCxPos" x="-200%" y="-200%" width="400%" height="400%" filterUnits="objectBoundingBox" color-interpolation-filters="sRGB"><feGaussianBlur xmlns="http://www.w3.org/2000/svg" in="SourceGraphic" stdDeviation="17.174436251356113"/><feOffset xmlns="http://www.w3.org/2000/svg" dx="0" dy="0" result="pf_100_offsetBlur"/><feFlood xmlns="http://www.w3.org/2000/svg" flood-color="#000000" flood-opacity="0.65"/><feComposite xmlns="http://www.w3.org/2000/svg" in2="pf_100_offsetBlur" operator="in" result="pf_100_dropShadow"/><feBlend xmlns="http://www.w3.org/2000/svg" in="SourceGraphic" in2="pf_100_dropShadow" mode="normal"/></filter></defs><g filter="url(#Q2EF2q4PvQ8G6QyqdETelFh3PfdCxPos)"><path d=" M 402.488 1841.398 L 402.488 1841.398 C 480.591 1841.398 544 1992.224 544 2178 C 544 2363.776 480.591 2514.602 402.488 2514.602 L 402.488 2514.602 L -469.061 2514.602 L -469.061 1841.398 L 402.488 1841.398 Z " fill-rule="evenodd" fill="rgb(232,232,232)"/></g><defs><filter id="q3MST329p62MFBvRtZykcCQC5uwj6Y0Y" x="-200%" y="-200%" width="400%" height="400%" filterUnits="objectBoundingBox" color-interpolation-filters="sRGB"><feGaussianBlur xmlns="http://www.w3.org/2000/svg" in="SourceGraphic" stdDeviation="17.174436251356113"/><feOffset xmlns="http://www.w3.org/2000/svg" dx="0" dy="0" result="pf_100_offsetBlur"/><feFlood xmlns="http://www.w3.org/2000/svg" flood-color="#000000" flood-opacity="0.65"/><feComposite xmlns="http://www.w3.org/2000/svg" in2="pf_100_offsetBlur" operator="in" result="pf_100_dropShadow"/><feBlend xmlns="http://www.w3.org/2000/svg" in="SourceGraphic" in2="pf_100_dropShadow" mode="normal"/></filter></defs><g filter="url(#q3MST329p62MFBvRtZykcCQC5uwj6Y0Y)"><path d=" M 380.146 1871.526 L 380.146 1871.526 C 456.246 1871.526 518.03 2008.852 518.03 2178 C 518.03 2347.148 456.246 2484.474 380.146 2484.474 L 380.146 2484.474 L -469.061 2484.474 L -469.061 1871.526 L 380.146 1871.526 Z " fill-rule="evenodd" fill="rgb(255,255,255)"/></g><defs><filter id="7StaQskbfKnec79zzSIZlrWVcZfKeika" x="-200%" y="-200%" width="400%" height="400%" filterUnits="objectBoundingBox" color-interpolation-filters="sRGB"><feGaussianBlur xmlns="http://www.w3.org/2000/svg" in="SourceGraphic" stdDeviation="4.293609062839028"/><feOffset xmlns="http://www.w3.org/2000/svg" dx="0" dy="0" result="pf_100_offsetBlur"/><feFlood xmlns="http://www.w3.org/2000/svg" flood-color="#000000" flood-opacity="0.65"/><feComposite xmlns="http://www.w3.org/2000/svg" in2="pf_100_offsetBlur" operator="in" result="pf_100_dropShadow"/><feBlend xmlns="http://www.w3.org/2000/svg" in="SourceGraphic" in2="pf_100_dropShadow" mode="normal"/></filter></defs><g filter="url(#7StaQskbfKnec79zzSIZlrWVcZfKeika)"><path d=" M 254.163 1895.577 C 299.058 1903.365 333.244 1942.552 333.244 1989.66 L 333.244 2366.697 C 333.244 2414.976 297.337 2454.936 250.794 2461.303 L 165.343 2480.908 L 76.297 2501.339 L 77.443 2459.669 L 77.518 2456.917 L 77.518 1899.083 L 77.443 1896.331 L 76.297 1854.661 L 165.343 1875.092 L 254.389 1895.522 L 254.163 1895.577 Z " fill-rule="evenodd" fill="rgb(47,116,155)"/></g><defs><filter id="TR2IowMvSYCvvL6PFtWm4Jj2dL8qWqxz" x="-200%" y="-200%" width="400%" height="400%" filterUnits="objectBoundingBox" color-interpolation-filters="sRGB"><feOffset xmlns="http://www.w3.org/2000/svg" in="SourceGraphic" dx="0" dy="0"/><feGaussianBlur xmlns="http://www.w3.org/2000/svg" stdDeviation="8.587218125678056" result="pf_100_offsetBlur"/><feComposite xmlns="http://www.w3.org/2000/svg" in="SourceGraphic" in2="pf_100_offsetBlur" result="pf_100_inverse" operator="out"/><feFlood xmlns="http://www.w3.org/2000/svg" flood-color="#000000" flood-opacity="0.5" result="pf_100_color"/><feComposite xmlns="http://www.w3.org/2000/svg" in="pf_100_color" in2="pf_100_inverse" operator="in" result="pf_100_shadow"/><feComposite xmlns="http://www.w3.org/2000/svg" in="pf_100_shadow" in2="SourceGraphic" operator="over" result="_out_58Jxd9QNmPWkENXg5VbyGMYKsPJ0UIIP"/><feOffset xmlns="http://www.w3.org/2000/svg" in="_out_58Jxd9QNmPWkENXg5VbyGMYKsPJ0UIIP" dx="0" dy="0"/><feGaussianBlur xmlns="http://www.w3.org/2000/svg" stdDeviation="2.146804531419514" result="pf_101_offsetBlur"/><feComposite xmlns="http://www.w3.org/2000/svg" in="_out_58Jxd9QNmPWkENXg5VbyGMYKsPJ0UIIP" in2="pf_101_offsetBlur" result="pf_101_inverse" operator="out"/><feFlood xmlns="http://www.w3.org/2000/svg" flood-color="#000000" flood-opacity="0.5" result="pf_101_color"/><feComposite xmlns="http://www.w3.org/2000/svg" in="pf_101_color" in2="pf_101_inverse" operator="in" result="pf_101_shadow"/><feComposite xmlns="http://www.w3.org/2000/svg" in="pf_101_shadow" in2="_out_58Jxd9QNmPWkENXg5VbyGMYKsPJ0UIIP" operator="over" result="_out_Ne5A2satPTgKZIhtRqAlSuk375eoaNID"/><feMerge><feMergeNode in="_out_Ne5A2satPTgKZIhtRqAlSuk375eoaNID"/></feMerge></filter></defs><g filter="url(#TR2IowMvSYCvvL6PFtWm4Jj2dL8qWqxz)"><path d=" M 319.241 2192.379 L 319.241 2354.61 C 319.241 2381.283 307.941 2405.336 289.871 2422.241 L 289.871 2422.241 L 65.509 2247.844 L 65.509 2192.379 L 319.241 2192.379 Z  M 319.241 2163.621 L 319.241 2001.39 C 319.241 1974.717 307.941 1950.664 289.871 1933.759 L 289.871 1933.759 L 65.509 2108.156 L 65.509 2163.621 L 319.241 2163.621 Z  M 267.393 2437.776 C 257.619 2442.58 246.877 2445.711 235.541 2446.794 L 152.649 2464.964 L 64.297 2484.331 L 65.434 2444.831 L 65.509 2442.223 L 65.509 2280.851 L 267.393 2437.776 L 267.393 2437.776 Z  M 267.393 1918.224 C 258.54 1913.873 248.892 1910.894 238.729 1909.566 L 152.649 1890.697 L 64.297 1871.331 L 65.434 1910.831 L 65.509 1913.439 L 65.509 2075.149 L 267.393 1918.224 L 267.393 1918.224 L 267.393 1918.224 Z " fill-rule="evenodd" fill="rgb(74,183,246)"/></g><defs><filter id="MlL2uvjEoYNk91X4y2qd9Vv0eqM8gbiQ" x="-200%" y="-200%" width="400%" height="400%" filterUnits="objectBoundingBox" color-interpolation-filters="sRGB"><feGaussianBlur xmlns="http://www.w3.org/2000/svg" in="SourceGraphic" stdDeviation="4.293609062839028"/><feOffset xmlns="http://www.w3.org/2000/svg" dx="0" dy="0" result="pf_100_offsetBlur"/><feFlood xmlns="http://www.w3.org/2000/svg" flood-color="#000000" flood-opacity="0.65"/><feComposite xmlns="http://www.w3.org/2000/svg" in2="pf_100_offsetBlur" operator="in" result="pf_100_dropShadow"/><feBlend xmlns="http://www.w3.org/2000/svg" in="SourceGraphic" in2="pf_100_dropShadow" mode="normal"/></filter></defs><g filter="url(#MlL2uvjEoYNk91X4y2qd9Vv0eqM8gbiQ)"><path d="M -571.159 1848.1 L 49.399 1848.1 C 114.387 1848.1 167.15 1900.862 167.15 1965.85 L 167.15 2390.15 C 167.15 2455.138 114.387 2507.9 49.399 2507.9 L -571.159 2507.9 C -636.147 2507.9 -688.91 2455.138 -688.91 2390.15 L -688.91 1965.85 C -688.91 1900.862 -636.147 1848.1 -571.159 1848.1 Z" style="stroke:none;fill:#E8E8E8;stroke-miterlimit:10;"/></g><defs><filter id="sk8GDCtKBGSQRfqHAfe9AOqUJzQcweRC" x="-200%" y="-200%" width="400%" height="400%" filterUnits="objectBoundingBox" color-interpolation-filters="sRGB"><feGaussianBlur xmlns="http://www.w3.org/2000/svg" in="SourceGraphic" stdDeviation="4.293609062839028"/><feOffset xmlns="http://www.w3.org/2000/svg" dx="0" dy="0" result="pf_100_offsetBlur"/><feFlood xmlns="http://www.w3.org/2000/svg" flood-color="#000000" flood-opacity="0.65"/><feComposite xmlns="http://www.w3.org/2000/svg" in2="pf_100_offsetBlur" operator="in" result="pf_100_dropShadow"/><feBlend xmlns="http://www.w3.org/2000/svg" in="SourceGraphic" in2="pf_100_dropShadow" mode="normal"/></filter></defs><g filter="url(#sk8GDCtKBGSQRfqHAfe9AOqUJzQcweRC)"><path d="M -575.417 1871.53 L 53.657 1871.53 C 116.296 1871.53 167.15 1922.384 167.15 1985.022 L 167.15 2370.978 C 167.15 2433.616 116.296 2484.47 53.657 2484.47 L -575.417 2484.47 C -638.056 2484.47 -688.91 2433.616 -688.91 2370.978 L -688.91 1985.022 C -688.91 1922.384 -638.056 1871.53 -575.417 1871.53 Z" style="stroke:none;fill:#FFFFFF;stroke-miterlimit:10;"/></g><path d="M -661.312 1841.4 L -413.558 1841.4 C -391.416 1841.4 -373.44 1859.376 -373.44 1881.518 L -373.44 2474.482 C -373.44 2496.624 -391.416 2514.6 -413.558 2514.6 L -661.312 2514.6 C -683.454 2514.6 -701.43 2496.624 -701.43 2474.482 L -701.43 1881.518 C -701.43 1859.376 -683.454 1841.4 -661.312 1841.4 Z" style="stroke:none;fill:#8B8B8B;stroke-miterlimit:10;"/><defs><filter id="g6TY1qQSvRoB6fDnvYcyXnU5McABZrZJ" x="-200%" y="-200%" width="400%" height="400%" filterUnits="objectBoundingBox" color-interpolation-filters="sRGB"><feGaussianBlur xmlns="http://www.w3.org/2000/svg" in="SourceGraphic" stdDeviation="8.587218125678056"/><feOffset xmlns="http://www.w3.org/2000/svg" dx="0" dy="0" result="pf_100_offsetBlur"/><feFlood xmlns="http://www.w3.org/2000/svg" flood-color="#000000" flood-opacity="0.65"/><feComposite xmlns="http://www.w3.org/2000/svg" in2="pf_100_offsetBlur" operator="in" result="pf_100_dropShadow"/><feBlend xmlns="http://www.w3.org/2000/svg" in="SourceGraphic" in2="pf_100_dropShadow" mode="normal"/></filter></defs><g filter="url(#g6TY1qQSvRoB6fDnvYcyXnU5McABZrZJ)"><path d="M -649.565 1841.4 L -412.785 1841.4 C -391.07 1841.4 -373.44 1859.03 -373.44 1880.745 L -373.44 2475.255 C -373.44 2496.97 -391.07 2514.6 -412.785 2514.6 L -649.565 2514.6 C -671.28 2514.6 -688.91 2496.97 -688.91 2475.255 L -688.91 1880.745 C -688.91 1859.03 -671.28 1841.4 -649.565 1841.4 Z" style="stroke:none;fill:#8B8B8B;stroke-miterlimit:10;"/></g><defs><filter id="Koelue0SOKGaUNdlos4QhiMWGpcgPzEF" x="-200%" y="-200%" width="400%" height="400%" filterUnits="objectBoundingBox" color-interpolation-filters="sRGB"><feGaussianBlur xmlns="http://www.w3.org/2000/svg" in="SourceGraphic" stdDeviation="8.587218125678056"/><feOffset xmlns="http://www.w3.org/2000/svg" dx="0" dy="0" result="pf_100_offsetBlur"/><feFlood xmlns="http://www.w3.org/2000/svg" flood-color="#000000" flood-opacity="0.65"/><feComposite xmlns="http://www.w3.org/2000/svg" in2="pf_100_offsetBlur" operator="in" result="pf_100_dropShadow"/><feBlend xmlns="http://www.w3.org/2000/svg" in="SourceGraphic" in2="pf_100_dropShadow" mode="normal"/></filter></defs><g filter="url(#Koelue0SOKGaUNdlos4QhiMWGpcgPzEF)"><ellipse vector-effect="non-scaling-stroke" cx="-534.571620242449" cy="2177.9999999999995" rx="126.42837975755106" ry="153.84225819052745" fill="rgb(114,114,114)"/></g><ellipse vector-effect="non-scaling-stroke" cx="-526.5174747485728" cy="2178" rx="118.37423426367488" ry="153.84225819052745" fill="rgb(255,255,255)"/></g></g></svg>